<?xml version="1.0" encoding="iso-8859-1"?>
<!-- Generator: Adobe Illustrator 19.0.0, SVG Export Plug-In . SVG Version: 6.00 Build 0)  -->
<svg version="1.1" id="Layer_1" xmlns="http://www.w3.org/2000/svg" xmlns:xlink="http://www.w3.org/1999/xlink" x="0px" y="0px"
	 viewBox="0 0 501.333 501.333" style="enable-background:new 0 0 501.333 501.333;" xml:space="preserve" fill="current">
<g>
	<g>
		<path d="M446.933,59.733H54.4c-29.867,0-54.4,24.533-54.4,54.4V387.2c0,29.867,24.533,54.4,54.4,54.4h392.533
			c29.867,0,54.4-24.533,54.4-54.4V114.133C501.333,84.266,476.8,59.733,446.933,59.733z M459.733,388.266
			c0,7.467-6.4,12.8-12.8,12.8H54.4c-7.467,0-12.8-6.4-12.8-12.8V115.2c0-7.467,6.4-12.8,12.8-12.8v-1.066h392.533
			c7.467,0,12.8,6.4,12.8,12.8V388.266z"/>
	</g>
</g>
<g>
	<g>
		<path d="M186.667,329.6H96c-11.733,0-21.333,9.6-21.333,21.333s9.6,21.333,21.333,21.333h90.667
			c10.667,0,21.333-9.6,21.333-21.333S198.4,329.6,186.667,329.6z"/>
	</g>
</g>
<g>
	<g>
		<path d="M186.667,272H96c-11.733,0-21.333,9.6-21.333,21.333s9.6,21.333,21.333,21.333h90.667c10.667,0,21.333-9.6,21.333-21.333
			S198.4,272,186.667,272z"/>
	</g>
</g>
<g>
	<g>
		<path d="M413.867,142.933H307.2c-11.733,0-21.333,9.6-21.333,21.333s9.6,21.333,21.333,21.333h106.667
			c10.667,0,21.333-9.6,21.333-21.333S425.6,142.933,413.867,142.933z"/>
	</g>
</g>
</svg>
